<svg fill="none" xmlns="http://www.w3.org/2000/svg" viewBox="0 0 22 22" class="icon-nav">
  <path d="M19.562 20.884l-.357-3.346a2.54 2.54 0 00-1.931-2.198l-3.944-.942-.132-1.557a5.91 5.91 0 001.986-2.775c.05.003.1.007.149.007a1.51 1.51 0 001.194-.53 1.638 1.638 0 00.294-1.562 1.048 1.048 0 00-.588-.63c-.01-.005-.022-.008-.032-.012V5.614c0-4.776-4.523-4.83-4.569-4.83H6.557a.3.3 0 00-.3.3 2.25 2.25 0 00.78 1.674A2.586 2.586 0 005.8 4.961V7.34l-.033.011a1.05 1.05 0 00-.588.631 1.638 1.638 0 00.294 1.563 1.507 1.507 0 001.195.53c.048 0 .098-.005.148-.008a5.91 5.91 0 001.986 2.776l-.132 1.556-3.943.942a2.54 2.54 0 00-1.932 2.198l-.357 3.346a.301.301 0 00.599.064l.356-3.347a1.937 1.937 0 011.474-1.676l2.288-.546-.705 3.399a.301.301 0 00.394.345l1.806-.634v2.427a.3.3 0 10.602 0v-4.711a2.34 2.34 0 003.496 0v4.711a.3.3 0 10.602 0v-2.427l1.806.633a.301.301 0 00.394-.345l-.705-3.398 2.289.546a1.939 1.939 0 011.473 1.676l.357 3.347a.301.301 0 00.298.269c.01 0 .022 0 .033-.002a.3.3 0 00.267-.33zm-3.303-12.69a1.038 1.038 0 01-.192.963.908.908 0 01-.71.314c.12-.511.186-1.034.196-1.559a.764.764 0 01.46-.002.456.456 0 01.246.285zM7.717 3.098a.301.301 0 00.042-.548 1.837 1.837 0 01-.872-1.164h4.746c.162 0 3.966.048 3.966 4.229v1.673c-.09.014-.179.034-.266.061l-.56-.564a1.808 1.808 0 01-.506-1.034l-.143-1.103a.3.3 0 00-.374-.252c-.902.202-1.825.3-2.75.291-.925.008-1.847-.09-2.75-.292a.3.3 0 00-.374.253l-.143 1.102c-.052.391-.23.755-.506 1.035l-.558.565a1.741 1.741 0 00-.267-.06V4.96a1.982 1.982 0 011.315-1.864zm-1.784 6.06a1.039 1.039 0 01-.192-.963.456.456 0 01.248-.285.764.764 0 01.459.003c.01.525.076 1.047.195 1.558a.909.909 0 01-.71-.313zm1.114-1.335l.608-.614c.37-.374.607-.859.675-1.38l.101-.777c.847.16 1.707.24 2.57.237a13.52 13.52 0 002.569-.237l.1.776c.069.522.306 1.007.676 1.381l.607.614c-.048 3.132-1.931 4.563-3.06 5.14a1.97 1.97 0 01-1.787 0c-1.128-.577-3.012-2.008-3.06-5.14zm.1 10.557l.654-3.155.85-.203v2.83l-1.503.528zM11 16.389a1.75 1.75 0 01-1.748-1.74l.12-1.411c.162.1.317.186.46.26a2.572 2.572 0 002.336 0c.144-.074.299-.16.46-.26l.12 1.41A1.75 1.75 0 0111 16.389zm3.853 1.99l-1.503-.527v-2.83l.849.203.654 3.154z" fill="#FFAA84"/>
  <path d="M12.258 11.086a.3.3 0 10-.296-.525c-.301.138-.63.206-.962.197a2.182 2.182 0 01-.962-.196.3.3 0 10-.296.524c.391.19.823.284 1.258.274.435.01.866-.084 1.258-.274zM9.808 7.48a.3.3 0 10.4-.449 1.347 1.347 0 00-.885-.29 1.347 1.347 0 00-.886.29.298.298 0 00-.022.418.304.304 0 00.422.032.921.921 0 01.97 0zM9.737 8.286a.415.415 0 10-.83 0 .415.415 0 00.83 0zM12.192 7.48a.921.921 0 01.971 0 .301.301 0 00.4-.449 1.495 1.495 0 00-1.77 0 .298.298 0 00.182.52.304.304 0 00.217-.07zM12.678 7.87a.415.415 0 100 .83.415.415 0 000-.83z" fill="#FFAA84"/>
</svg>