<svg fill="none" xmlns="http://www.w3.org/2000/svg" viewBox="0 0 16 16" class="icon">
  <path d="M7.999.167C3.582.167 0 3.763 0 8.199a8.031 8.031 0 005.472 7.62c.4.075.546-.173.546-.386 0-.191-.007-.696-.011-1.367-2.225.486-2.695-1.077-2.695-1.077-.363-.928-.888-1.175-.888-1.175-.727-.498.054-.488.054-.488.803.057 1.225.829 1.225.829.714 1.227 1.873.873 2.329.667.072-.52.279-.873.508-1.074-1.776-.204-3.644-.893-3.644-3.97 0-.876.312-1.593.824-2.155-.083-.203-.357-1.02.078-2.125 0 0 .672-.216 2.2.823a7.633 7.633 0 012.003-.27 7.65 7.65 0 012.003.27c1.527-1.038 2.198-.822 2.198-.822.436 1.106.162 1.922.08 2.125.513.562.822 1.279.822 2.156 0 3.084-1.87 3.763-3.652 3.962.287.248.543.738.543 1.487 0 1.075-.01 1.94-.01 2.204 0 .215.144.465.55.386A8.032 8.032 0 0016 8.199C16 3.763 12.418.167 7.999.167z" fill="#F72405"/>
</svg>