<svg fill="none" xmlns="http://www.w3.org/2000/svg" viewBox="0 0 22 22" class="icon-nav">
  <path d="M21.593 19.622L12.85 10.88l3.439-3.438.96.96.363-.363a.383.383 0 01.546 0c.15.15.15.395 0 .545l-.364.364 1.303 1.303 2.88-2.88-1.304-1.303-.363.364a.383.383 0 01-.546 0 .383.383 0 010-.546l.364-.363-.96-.96.97-.97-2.273-2.273-.97.97L15.506.9a2.897 2.897 0 00-4.091 0l-.379.38L12.4 2.642l.485-.485a.809.809 0 01.576-.238.815.815 0 01.576 1.39l-.94.94.92.92-3.439 3.437-3.373-3.373c.199-.582.22-1.219.043-1.843a3.066 3.066 0 00-2.265-2.175L.07.043l1.173 4.913A3.066 3.066 0 003.418 7.22c.286.081.575.12.86.12.323 0 .64-.05.944-.15l3.386 3.387L0 19.186l2.273 2.273 8.609-8.608 8.74 8.74c.272.272.629.408.986.408.356 0 .713-.136.985-.407a1.395 1.395 0 000-1.97zM17.866 2.229l1.364 1.364-.515.515-1.364-1.363.515-.516zm-3.86 2.02l.485-.484a1.46 1.46 0 00-1.03-2.488c-.39 0-.755.151-1.03.427l-.031.03-.453-.453a2.253 2.253 0 013.105.074l4.173 4.173c-.14.18-.216.4-.216.631 0 .275.107.533.302.728.194.194.452.301.727.301.232 0 .451-.076.631-.216l.4.4-1.97 1.97-.4-.4A1.03 1.03 0 0017.255 7.5l-3.248-3.25zm.465 1.375l1.364 1.364-3.438 3.438-1.364-1.364 3.438-3.438zm-10.879.978a2.431 2.431 0 01-1.724-1.796L.938.911l3.895.93A2.43 2.43 0 016.63 3.567a2.43 2.43 0 01-.628 2.409 2.431 2.431 0 01-2.409.627zM2.273 20.55L.91 19.186l8.154-8.154 1.364 1.364-8.154 8.154zm18.865.587a.75.75 0 01-1.06 0L5.845 6.907a3.174 3.174 0 001.067-1.055l14.225 14.224a.75.75 0 010 1.061z" fill="#FFAA84"/>
  <path d="M17.367 5.488l.454-.454.455.454-.454.455-.455-.455zM15.548 3.67l.455-.455.455.455-.455.455-.455-.455zM16.458 4.58l.454-.455.455.454-.455.455-.454-.455zM2.166 2.527l.15-.625 2.368.565-.15.626-2.368-.566zM2.494 4.657c.072.302.208.568.403.788l.482-.426a1.172 1.172 0 01-.26-.511l-.625.149zM4.273 5.411a1.25 1.25 0 01-.49-.102l-.254.59c.234.102.492.155.744.155.338 0 .832-.093 1.274-.534l-.455-.455a1.137 1.137 0 01-.819.346z" fill="#FFAA84"/>
</svg>