<svg fill="none" xmlns="http://www.w3.org/2000/svg" viewBox="0 0 20 20">
  <path d="M14.848 2.307a4.85 4.85 0 00-4.744 3.848c-.024.113-.184.113-.208 0a4.85 4.85 0 00-4.745-3.848c-4.457 0-6.553 5.508-3.223 8.47l7.553 6.72a.781.781 0 001.038 0l7.552-6.72c3.33-2.962 1.235-8.47-3.223-8.47z" fill="#FE646F"/>
  <path d="M14.848 2.306c-.27 0-.534.022-.792.065 3.881.624 5.522 5.631 2.403 8.406L9.194 17.24l.286.255a.781.781 0 001.04 0l7.551-6.72c3.33-2.962 1.234-8.47-3.223-8.47z" fill="#FD4755"/>
  <path d="M14.848 2.306a4.85 4.85 0 00-4.744 3.848c-.024.113-.184.113-.208 0a4.85 4.85 0 00-4.745-3.848c-4.457 0-6.553 5.508-3.223 8.471l7.553 6.72a.781.781 0 001.038 0l7.552-6.72c3.33-2.963 1.235-8.47-3.223-8.47z" fill="#FE646F"/>
  <path d="M14.848 2.306c-.27 0-.534.022-.792.065 3.881.624 5.522 5.631 2.403 8.406L9.194 17.24l.286.255a.781.781 0 001.04 0l7.551-6.72c3.33-2.962 1.234-8.47-3.223-8.47z" fill="#FD4755"/>
  <path d="M9.286 17.715c-7.981-7.1-7.711-6.866-7.711-6.866A5.034 5.034 0 010 7.196C0 5.38.962 3.613 2.574 2.685a.293.293 0 01.293.508C1.46 4.003.586 5.537.586 7.196c0 1.219.495 2.366 1.395 3.23 0 0-.269-.234 7.694 6.851a.487.487 0 00.65 0l2.418-2.151a.293.293 0 01.39.437l-2.42 2.152a1.074 1.074 0 01-1.427 0zm4.673-2.986a.292.292 0 01-.194-.512l4.112-3.659c.852-.758 1.372-1.733 1.504-2.82.298-2.458-1.48-5.139-4.533-5.139a4.573 4.573 0 00-4.458 3.615.396.396 0 01-.39.318.396.396 0 01-.39-.318A4.573 4.573 0 005.15 2.6c-.376 0-.745.042-1.097.125a.293.293 0 11-.134-.57c.395-.094.81-.14 1.231-.14A5.145 5.145 0 0110 5.441a5.145 5.145 0 014.848-3.429c3.317 0 5.464 2.913 5.115 5.795v.001c-.15 1.23-.736 2.332-1.697 3.187l-4.112 3.659a.292.292 0 01-.195.074z" fill="#000"/>
</svg>