<svg xmlns="http://www.w3.org/2000/svg" viewBox="0 0 512 512" class="icon-nav">
  <path d="M511.99 224.592a9.941 9.941 0 00-1.904-5.881 10.037 10.037 0 00-1.506-1.639.018.018 0 00.005-.004l-34.511-30.203c7.436-5.988 12.206-15.158 12.206-25.426v-16.41c0-44.112-35.888-80-80-80s-80 35.888-80 80 35.888 80 80 80c5.523 0 10-4.477 10-10s-4.477-10-10-10c-33.084 0-60-26.916-60-60s26.916-60 60-60 60 26.916 60 60v16.41c0 6.97-5.67 12.64-12.641 12.64-6.97 0-12.64-5.67-12.64-12.64v-42.568a10 10 0 00-3.13-7.267c-8.578-8.109-19.796-12.575-31.589-12.575-25.364 0-46 20.636-46 46s20.636 46 46 46a45.774 45.774 0 0024.033-6.79c5.739 5.87 13.666 9.584 22.449 9.818a9.969 9.969 0 002.086 2.56l31.144 27.256L406 282.068v-26.07c0-5.523-4.477-10-10-10s-10 4.477-10 10v40.62l-74.654 54.311-49.463-35.984a9.998 9.998 0 00-11.766 0l-49.463 35.984L26.442 224.188l56.903-49.799c4.156-3.637 4.576-9.955.939-14.111-3.638-4.156-9.955-4.576-14.111-.939L3.688 216.838l-.012.011A9.978 9.978 0 000 224.593v277.404c0 5.523 4.477 10 10 10h492c5.523 0 10-4.477 10-10V224.593l-.01-.001zM421 147.622v18.833a25.858 25.858 0 01-14.719 4.574c-14.336 0-26-11.664-26-26s11.664-26 26-26A25.856 25.856 0 01421 123.603v24.019zM20 244.234l163.656 119.061L20 482.356V244.234zm20.744 247.763L256 335.397l215.256 156.6H40.744zM492 482.356L328.344 363.295 492 244.234v238.122z"/>
  <path d="M337.347 67.239l-74.799-64.8c-3.8-3.293-9.368-3.201-13.065-.012l-.008-.008-36 31c-4.185 3.604-4.656 9.918-1.052 14.103a9.976 9.976 0 007.582 3.475 9.96 9.96 0 006.521-2.422l29.456-25.365 48.271 41.818H116c-5.523 0-10 4.477-10 10v143.969c0 5.523 4.477 10 10 10s10-4.477 10-10V85.029h204.799c-.033-.083-.058-.155-.09-.236.028 0 .057.004.085.004 2.8 0 5.585-1.17 7.563-3.452 3.616-4.174 3.164-10.49-1.01-14.106z"/>
  <path d="M257.393 165.997h-99.976c-5.523 0-10 4.477-10 10s4.477 10 10 10h99.976c5.523 0 10-4.477 10-10s-4.477-10-10-10zM256 115.997h-98.583c-5.523 0-10 4.477-10 10s4.477 10 10 10H256c5.523 0 10-4.477 10-10s-4.477-10-10-10zM123.07 252.257c-1.86-1.86-4.44-2.93-7.07-2.93s-5.21 1.07-7.07 2.93a10.076 10.076 0 00-2.93 7.07c0 2.64 1.07 5.21 2.93 7.07 1.86 1.871 4.44 2.93 7.07 2.93s5.21-1.06 7.07-2.93c1.86-1.86 2.93-4.43 2.93-7.07 0-2.63-1.07-5.21-2.93-7.07zM323.589 215.289H304c-5.523 0-10 4.477-10 10s4.477 10 10 10h19.589c5.523 0 10-4.477 10-10s-4.477-10-10-10zM259.811 215.289h-.11c-5.523 0-10 4.477-10 10s4.477 10 10 10h.11c5.522 0 10-4.477 10-10s-4.477-10-10-10zM212 215.289h-54.633c-5.523 0-10 4.477-10 10s4.477 10 10 10H212c5.523 0 10-4.477 10-10s-4.477-10-10-10z"/>
</svg>