<svg fill="none" xmlns="http://www.w3.org/2000/svg" viewBox="0 0 42 42">
  <path d="M36.763 20.344l-1.833-5.91 4.458-3.278-6.23-1.447 2.293-5.115-7.019 2.752 1.112-5.377-5.573 4.196L21.669.656 17.8 5.574 12.482 1.97l-.59 5.377-5.973-1.44 1.814 4.984-4.439 2.891 3.282 1.313-1.97 5.25 3.938-3.063v3.517c-.456.106-.834.205-.998.252l-.924.263-.028.96c-.002.078-.056 1.921 0 3.059.15 2.932 1.644 4.956 3.9 5.413 1.542 4.492 6.116 8.63 8.22 8.63h.01c.46-.003 1.231-.003 1.755-.001v.001h.556v-.001c.48-.001 1.164-.002 1.61.001h.01c2.137 0 6.794-4.218 8.294-8.76 2.224-.48 3.696-2.491 3.844-5.399.058-1.139.003-2.872 0-2.946l-.03-.958-1.09-.31a32.3 32.3 0 00-.847-.236v-2.237l3.937 1.815zM17.458 18.77l1.13-2.625c.002-.005.006-.008.008-.012.275-1.279 1.449-2.27 2.888-2.352 1.05-.059 1.733.027 2.081.096L25 13.203a.656.656 0 11.559 1.188l-1.64.772a.654.654 0 01-.478.031s-.608-.174-1.883-.102c-.95.054-1.702.756-1.711 1.6-.005.458.174.905.49 1.228.287.29.653.452 1.033.455.517.003.93-.113 1.129-.33.155-.168.172-.384.159-.535a.359.359 0 00-.24-.313.605.605 0 00-.62.129.656.656 0 11-.863-.99c.557-.485 1.313-.622 1.973-.357.604.243 1 .772 1.057 1.414.052.588-.125 1.135-.5 1.542-.318.344-.935.753-2.075.753h-.028c-.033 0-.065-.01-.098-.011-.018.001-.034.01-.053.01h-3.15a.656.656 0 01-.603-.916zm14.713 6.312c-.046.908-.36 3.02-2.282 3.02h-1.313V29.4c-.011.044-.026.087-.039.13h-4.899l4.177 1.779c-.152.288-.316.57-.49.846h-3.03l2.126 1.283a16 16 0 01-.571.686h-2.212l1.193 1.066c-.95.905-1.797 1.487-2.17 1.559-.568-.003-1.522-.002-1.958 0-.502-.001-1.439-.002-1.93.005-.381-.073-1.194-.616-2.108-1.47l1.067-1.16-2.188-.005c-.17-.194-.34-.397-.506-.606l2.038-1.358h-3.001a12.25 12.25 0 01-.342-.583l3.999-2.042h-4.865c-.018-.061-.04-.123-.057-.185v-1.127h-1.312c-1.921 0-2.236-2.112-2.282-3.019a33.22 33.22 0 01-.019-1.86c.275-.063.565-.123.84-.174.008-.002.018 0 .027-.002.15-.023.299-.04.448-.063l1.313 3.148.673-3.426a67.918 67.918 0 012.776-.289 1.638 1.638 0 00.812 3.067 1.645 1.645 0 00.635-3.161 65.583 65.583 0 017.957-.01 1.642 1.642 0 00.6 3.172 1.64 1.64 0 00.77-3.088c.922.074 1.84.17 2.754.285l.742 3.451 1.212-3.166c.18.029.361.049.541.079.072.012.145.018.217.018.031 0 .062-.006.094-.009.195.043.393.09.582.14a30.78 30.78 0 01-.02 1.771z" fill="#E86E38"/>
</svg>