<svg fill="none" xmlns="http://www.w3.org/2000/svg" viewBox="0 0 16 16" class="icon">
  <path d="M10.625 5.678c-.215.006-.377-.235-.288-.432.09-.228.415-.26.548-.054a.314.314 0 01-.26.486z" fill="#F72405"/>
  <path d="M15.71 1.165l-.888-.888a1.018 1.018 0 00-1.395 0l-.693.693-.09-.089a.312.312 0 00-.441 0L1.347 11.746a.771.771 0 00-.211.396l-.001.003-1.12 3.446a.313.313 0 00.394.394l3.442-1.12a.77.77 0 00.4-.213l9.185-9.195.097.097a.416.416 0 010 .587l-5.079 5.082a.312.312 0 00.443.442l5.078-5.083a1.041 1.041 0 000-1.47l-.097-.097 1.228-1.23a.313.313 0 000-.44l-.09-.09.694-.695a.988.988 0 000-1.395zM2.398 14.68L1.32 13.6l.193-.592 1.478 1.48-.592.192zm-1.296-.413l.63.63-.933.303.303-.933zm2.706-.057a.15.15 0 01-.212 0L1.789 12.4a.151.151 0 010-.213l1.023-1.023 2.019 2.021-1.023 1.024zm1.464-1.466l-.788-.79 5.599-5.603a.313.313 0 10-.443-.442l-5.598 5.603-.789-.79 7.722-7.728 2.02 2.021-7.723 7.729zm8.164-8.171l-2.019-2.021 1.007-1.008 2.019 2.021-1.007 1.008zm1.831-2.454l-.693.693-1.398-1.4.688-.688c.147-.132.382-.134.518-.004l.885.887a.362.362 0 010 .512z" fill="#F72405"/>
</svg>