<svg fill="none" xmlns="http://www.w3.org/2000/svg" viewBox="0 0 22 22" class="icon-nav">
  <path d="M8.433 19.218v.582a.367.367 0 00.367.367h8.433a.367.367 0 00.367-.367v-2.933a.367.367 0 00-.367-.367H8.8a.367.367 0 00-.367.367v.581l-.626.626a.366.366 0 000 .519l.626.625zm.626-1.359a.367.367 0 00.108-.259v-.367h7.7v2.2h-7.7v-.366a.367.367 0 00-.108-.26l-.474-.474.474-.474zM8.433 14.452v.581a.367.367 0 00.367.367h8.433a.366.366 0 00.367-.367V12.1a.367.367 0 00-.367-.367H8.8a.367.367 0 00-.367.367v.582l-.626.625a.367.367 0 000 .519l.626.626zm.626-1.36a.367.367 0 00.108-.259v-.366h7.7v2.2h-7.7V14.3a.367.367 0 00-.108-.26l-.474-.473.474-.474zM8.433 9.685v.582a.366.366 0 00.367.366h8.433a.366.366 0 00.367-.366V7.333a.367.367 0 00-.367-.366H8.8a.367.367 0 00-.367.366v.582l-.626.626a.367.367 0 000 .518l.626.626zm.626-1.36a.367.367 0 00.108-.258V7.7h7.7v2.2h-7.7v-.367a.367.367 0 00-.108-.259L8.585 8.8l.474-.474z" fill="#FFAA84"/>
  <path d="M11.733 17.967h4.4v.733h-4.4v-.733zM9.9 17.967H11v.733H9.9v-.733zM11.733 13.2h4.4v.733h-4.4V13.2zM9.9 13.2H11v.733H9.9V13.2zM11.733 8.433h4.4v.734h-4.4v-.734zM9.9 8.433H11v.734H9.9v-.734zM4.4 18.333a1.102 1.102 0 00.733 1.037v.797h.734v-.797a1.1 1.1 0 000-2.074v-2.692a1.1 1.1 0 000-2.074V9.837a1.1 1.1 0 000-2.074v-.796h-.734v.796a1.1 1.1 0 000 2.074v2.693a1.1 1.1 0 000 2.074v2.692a1.101 1.101 0 00-.733 1.037zm1.1.367a.367.367 0 110-.733.367.367 0 010 .733zm0-10.267a.367.367 0 110 .734.367.367 0 010-.734zm0 4.767a.367.367 0 110 .733.367.367 0 010-.733z" fill="#FFAA84"/>
  <path d="M20.9 1.467h-1.1V1.1a1.1 1.1 0 00-2.2 0v.367h-2.933V1.1a1.1 1.1 0 00-2.2 0v.367H9.533V1.1a1.1 1.1 0 10-2.2 0v.367H4.4V1.1a1.1 1.1 0 10-2.2 0v.367H1.1a1.101 1.101 0 00-1.1 1.1V20.9A1.101 1.101 0 001.1 22h19.8a1.1 1.1 0 001.1-1.1V2.567a1.1 1.1 0 00-1.1-1.1zM18.333 1.1a.367.367 0 01.734 0v1.467a.367.367 0 01-.734 0V1.1zm-5.133 0a.367.367 0 11.733 0v1.467a.367.367 0 11-.733 0V1.1zm-5.133 0a.367.367 0 11.733 0v1.467a.367.367 0 01-.733 0V1.1zm-5.134 0a.367.367 0 11.734 0v1.467a.367.367 0 11-.734 0V1.1zm18.334 19.8a.367.367 0 01-.367.367H1.1a.367.367 0 01-.367-.367V5.867h20.534V20.9zm0-15.767H.733V2.567A.367.367 0 011.1 2.2h1.1v.367a1.1 1.1 0 002.2 0V2.2h2.933v.367a1.1 1.1 0 002.2 0V2.2h2.934v.367a1.1 1.1 0 002.2 0V2.2H17.6v.367a1.1 1.1 0 002.2 0V2.2h1.1a.367.367 0 01.367.367v2.566z" fill="#FFAA84"/>
</svg>